<mxfile host="app.diagrams.net" agent="Mozilla/5.0 (Windows NT 10.0; Win64; x64) AppleWebKit/537.36 (KHTML, like Gecko) Chrome/130.0.0.0 Safari/537.36 Edg/130.0.0.0" version="24.8.3">
  <diagram name="Page-1" id="2_tJVQXwq3GTbwz6MRom">
    <mxGraphModel dx="872" dy="515" grid="1" gridSize="10" guides="1" tooltips="1" connect="1" arrows="1" fold="1" page="1" pageScale="1" pageWidth="850" pageHeight="1100" math="0" shadow="0">
      <root>
        <mxCell id="0" />
        <mxCell id="1" parent="0" />
        <mxCell id="jKlAn6BtMbB2ytrz09Xb-23" style="edgeStyle=orthogonalEdgeStyle;rounded=0;orthogonalLoop=1;jettySize=auto;html=1;exitX=0.5;exitY=1;exitDx=0;exitDy=0;entryX=0.5;entryY=0;entryDx=0;entryDy=0;" edge="1" parent="1" source="jKlAn6BtMbB2ytrz09Xb-1" target="jKlAn6BtMbB2ytrz09Xb-2">
          <mxGeometry relative="1" as="geometry" />
        </mxCell>
        <mxCell id="jKlAn6BtMbB2ytrz09Xb-1" value="pendaftaran" style="ellipse;whiteSpace=wrap;html=1;" vertex="1" parent="1">
          <mxGeometry x="340" y="80" width="120" height="80" as="geometry" />
        </mxCell>
        <mxCell id="jKlAn6BtMbB2ytrz09Xb-24" style="edgeStyle=orthogonalEdgeStyle;rounded=0;orthogonalLoop=1;jettySize=auto;html=1;exitX=0.5;exitY=1;exitDx=0;exitDy=0;entryX=0.5;entryY=0;entryDx=0;entryDy=0;" edge="1" parent="1" source="jKlAn6BtMbB2ytrz09Xb-2" target="jKlAn6BtMbB2ytrz09Xb-3">
          <mxGeometry relative="1" as="geometry" />
        </mxCell>
        <mxCell id="jKlAn6BtMbB2ytrz09Xb-2" value="login" style="ellipse;whiteSpace=wrap;html=1;" vertex="1" parent="1">
          <mxGeometry x="340" y="200" width="120" height="80" as="geometry" />
        </mxCell>
        <mxCell id="jKlAn6BtMbB2ytrz09Xb-25" style="edgeStyle=orthogonalEdgeStyle;rounded=0;orthogonalLoop=1;jettySize=auto;html=1;exitX=1;exitY=0.5;exitDx=0;exitDy=0;entryX=0;entryY=0.5;entryDx=0;entryDy=0;" edge="1" parent="1" source="jKlAn6BtMbB2ytrz09Xb-3" target="jKlAn6BtMbB2ytrz09Xb-8">
          <mxGeometry relative="1" as="geometry" />
        </mxCell>
        <mxCell id="jKlAn6BtMbB2ytrz09Xb-3" value="Beranda" style="ellipse;whiteSpace=wrap;html=1;" vertex="1" parent="1">
          <mxGeometry x="340" y="319" width="120" height="80" as="geometry" />
        </mxCell>
        <mxCell id="jKlAn6BtMbB2ytrz09Xb-4" style="edgeStyle=orthogonalEdgeStyle;rounded=0;orthogonalLoop=1;jettySize=auto;html=1;exitX=0.5;exitY=1;exitDx=0;exitDy=0;" edge="1" parent="1" source="jKlAn6BtMbB2ytrz09Xb-1" target="jKlAn6BtMbB2ytrz09Xb-1">
          <mxGeometry relative="1" as="geometry" />
        </mxCell>
        <mxCell id="jKlAn6BtMbB2ytrz09Xb-8" value="like &amp;amp; komen&lt;div&gt;&amp;nbsp;konten&lt;/div&gt;" style="ellipse;whiteSpace=wrap;html=1;" vertex="1" parent="1">
          <mxGeometry x="560" y="319" width="120" height="80" as="geometry" />
        </mxCell>
        <mxCell id="jKlAn6BtMbB2ytrz09Xb-30" style="edgeStyle=orthogonalEdgeStyle;rounded=0;orthogonalLoop=1;jettySize=auto;html=1;exitX=0.5;exitY=1;exitDx=0;exitDy=0;entryX=0.5;entryY=0;entryDx=0;entryDy=0;" edge="1" parent="1" source="jKlAn6BtMbB2ytrz09Xb-9" target="jKlAn6BtMbB2ytrz09Xb-13">
          <mxGeometry relative="1" as="geometry" />
        </mxCell>
        <mxCell id="jKlAn6BtMbB2ytrz09Xb-31" style="edgeStyle=orthogonalEdgeStyle;rounded=0;orthogonalLoop=1;jettySize=auto;html=1;exitX=1;exitY=0.5;exitDx=0;exitDy=0;entryX=0.5;entryY=0;entryDx=0;entryDy=0;" edge="1" parent="1" source="jKlAn6BtMbB2ytrz09Xb-9" target="jKlAn6BtMbB2ytrz09Xb-15">
          <mxGeometry relative="1" as="geometry" />
        </mxCell>
        <mxCell id="jKlAn6BtMbB2ytrz09Xb-32" style="edgeStyle=orthogonalEdgeStyle;rounded=0;orthogonalLoop=1;jettySize=auto;html=1;exitX=0;exitY=0.5;exitDx=0;exitDy=0;entryX=0.5;entryY=0;entryDx=0;entryDy=0;" edge="1" parent="1" source="jKlAn6BtMbB2ytrz09Xb-9" target="jKlAn6BtMbB2ytrz09Xb-14">
          <mxGeometry relative="1" as="geometry" />
        </mxCell>
        <mxCell id="jKlAn6BtMbB2ytrz09Xb-9" value="profil" style="ellipse;whiteSpace=wrap;html=1;" vertex="1" parent="1">
          <mxGeometry x="260" y="440" width="120" height="80" as="geometry" />
        </mxCell>
        <mxCell id="jKlAn6BtMbB2ytrz09Xb-12" value="User" style="shape=umlActor;verticalLabelPosition=bottom;verticalAlign=top;html=1;outlineConnect=0;" vertex="1" parent="1">
          <mxGeometry x="10" y="150" width="70" height="145" as="geometry" />
        </mxCell>
        <mxCell id="jKlAn6BtMbB2ytrz09Xb-13" value="edit konten" style="ellipse;whiteSpace=wrap;html=1;" vertex="1" parent="1">
          <mxGeometry x="260" y="600" width="120" height="80" as="geometry" />
        </mxCell>
        <mxCell id="jKlAn6BtMbB2ytrz09Xb-14" value="upload konten" style="ellipse;whiteSpace=wrap;html=1;" vertex="1" parent="1">
          <mxGeometry x="110" y="560" width="120" height="80" as="geometry" />
        </mxCell>
        <mxCell id="jKlAn6BtMbB2ytrz09Xb-15" value="logout" style="ellipse;whiteSpace=wrap;html=1;" vertex="1" parent="1">
          <mxGeometry x="410" y="550" width="120" height="80" as="geometry" />
        </mxCell>
        <mxCell id="jKlAn6BtMbB2ytrz09Xb-27" value="" style="endArrow=classic;html=1;rounded=0;exitX=0;exitY=1;exitDx=0;exitDy=0;entryX=0.5;entryY=0;entryDx=0;entryDy=0;" edge="1" parent="1" source="jKlAn6BtMbB2ytrz09Xb-3" target="jKlAn6BtMbB2ytrz09Xb-9">
          <mxGeometry width="50" height="50" relative="1" as="geometry">
            <mxPoint x="290" y="420" as="sourcePoint" />
            <mxPoint x="330" y="430" as="targetPoint" />
          </mxGeometry>
        </mxCell>
        <mxCell id="jKlAn6BtMbB2ytrz09Xb-38" value="" style="endArrow=classic;html=1;rounded=0;exitX=0.5;exitY=0.5;exitDx=0;exitDy=0;exitPerimeter=0;entryX=0;entryY=0.5;entryDx=0;entryDy=0;" edge="1" parent="1" source="jKlAn6BtMbB2ytrz09Xb-12" target="jKlAn6BtMbB2ytrz09Xb-1">
          <mxGeometry width="50" height="50" relative="1" as="geometry">
            <mxPoint x="140" y="180" as="sourcePoint" />
            <mxPoint x="190" y="130" as="targetPoint" />
          </mxGeometry>
        </mxCell>
        <mxCell id="jKlAn6BtMbB2ytrz09Xb-39" value="" style="endArrow=classic;html=1;rounded=0;exitX=0.5;exitY=0.5;exitDx=0;exitDy=0;exitPerimeter=0;entryX=0;entryY=0.5;entryDx=0;entryDy=0;" edge="1" parent="1" source="jKlAn6BtMbB2ytrz09Xb-12" target="jKlAn6BtMbB2ytrz09Xb-2">
          <mxGeometry width="50" height="50" relative="1" as="geometry">
            <mxPoint x="200" y="230" as="sourcePoint" />
            <mxPoint x="270" y="215" as="targetPoint" />
          </mxGeometry>
        </mxCell>
        <mxCell id="jKlAn6BtMbB2ytrz09Xb-40" value="" style="endArrow=classic;html=1;rounded=0;exitX=0.5;exitY=0.5;exitDx=0;exitDy=0;exitPerimeter=0;entryX=0;entryY=0.5;entryDx=0;entryDy=0;" edge="1" parent="1" source="jKlAn6BtMbB2ytrz09Xb-12" target="jKlAn6BtMbB2ytrz09Xb-3">
          <mxGeometry width="50" height="50" relative="1" as="geometry">
            <mxPoint x="180" y="310" as="sourcePoint" />
            <mxPoint x="230" y="260" as="targetPoint" />
          </mxGeometry>
        </mxCell>
        <mxCell id="jKlAn6BtMbB2ytrz09Xb-41" value="" style="endArrow=classic;html=1;rounded=0;entryX=0.225;entryY=0.113;entryDx=0;entryDy=0;entryPerimeter=0;exitX=0.5;exitY=0.5;exitDx=0;exitDy=0;exitPerimeter=0;" edge="1" parent="1" source="jKlAn6BtMbB2ytrz09Xb-12" target="jKlAn6BtMbB2ytrz09Xb-9">
          <mxGeometry width="50" height="50" relative="1" as="geometry">
            <mxPoint x="210" y="384" as="sourcePoint" />
            <mxPoint x="260" y="334" as="targetPoint" />
          </mxGeometry>
        </mxCell>
      </root>
    </mxGraphModel>
  </diagram>
</mxfile>
